<svg width="1280" height="982" viewBox="0 0 1280 982" fill="none" xmlns="http://www.w3.org/2000/svg">
<rect width="1280" height="982" fill="#009688"/>
<g filter="url(#filter0_d_808_2)">
<path d="M808.167 344.333H778.667V265.667C778.667 255.235 774.523 245.23 767.146 237.854C759.77 230.477 749.765 226.333 739.333 226.333H660.667V196.833C660.667 183.794 655.487 171.288 646.266 162.067C637.045 152.847 624.54 147.667 611.5 147.667C598.46 147.667 585.954 152.847 576.734 162.067C567.513 171.288 562.333 183.794 562.333 196.833V226.333H483.667C473.235 226.333 463.23 230.477 455.854 237.854C448.477 245.23 444.333 255.235 444.333 265.667V340.4H473.833C503.333 340.4 526.933 364 526.933 393.5C526.933 423 503.333 446.6 473.833 446.6H444.333V521.333C444.333 531.765 448.477 541.77 455.854 549.146C463.23 556.523 473.235 560.667 483.667 560.667H558.4V531.167C558.4 501.667 582 478.067 611.5 478.067C641 478.067 664.6 501.667 664.6 531.167V560.667H739.333C749.765 560.667 759.77 556.523 767.146 549.146C774.523 541.77 778.667 531.765 778.667 521.333V442.667H808.167C821.206 442.667 833.712 437.487 842.933 428.266C852.153 419.046 857.333 406.54 857.333 393.5C857.333 380.46 852.153 367.954 842.933 358.734C833.712 349.513 821.206 344.333 808.167 344.333V344.333Z" fill="white"/>
</g>
<g filter="url(#filter1_d_808_2)">
<path d="M374.803 811H353.006L353.182 797.201H374.803C382.479 797.201 388.719 795.736 393.523 792.807C398.328 789.818 401.873 785.424 404.158 779.623C406.443 773.764 407.586 766.527 407.586 757.914V736.029C407.586 729.232 406.941 723.373 405.652 718.451C404.363 713.529 402.43 709.486 399.852 706.322C397.273 703.158 394.021 700.814 390.096 699.291C386.17 697.709 381.57 696.918 376.297 696.918H352.566V683.031H376.297C383.504 683.031 390.008 684.174 395.809 686.459C401.609 688.686 406.59 692.055 410.75 696.566C414.91 701.02 418.074 706.557 420.242 713.178C422.469 719.799 423.582 727.475 423.582 736.205V757.914C423.582 766.645 422.469 774.32 420.242 780.941C418.074 787.562 414.881 793.1 410.662 797.553C406.443 802.006 401.316 805.375 395.281 807.66C389.305 809.887 382.479 811 374.803 811ZM361.971 683.031V811H345.799V683.031H361.971ZM480.535 812.758C474.852 812.758 469.725 811.908 465.154 810.209C460.584 808.51 456.688 805.932 453.465 802.475C450.242 798.959 447.781 794.535 446.082 789.203C444.383 783.871 443.533 777.572 443.533 770.307V759.584C443.533 751.205 444.5 744.115 446.434 738.314C448.426 732.514 451.092 727.855 454.432 724.34C457.771 720.766 461.551 718.188 465.77 716.605C469.988 714.965 474.324 714.145 478.777 714.145C484.754 714.145 489.852 715.111 494.07 717.045C498.289 718.979 501.717 721.85 504.354 725.658C506.99 729.467 508.924 734.154 510.154 739.721C511.443 745.287 512.088 751.703 512.088 758.969V768.021H452.674V754.75H496.531V752.553C496.297 747.631 495.623 743.295 494.51 739.545C493.455 735.795 491.697 732.865 489.236 730.756C486.775 728.588 483.289 727.504 478.777 727.504C475.906 727.504 473.24 728.002 470.779 728.998C468.377 729.936 466.297 731.605 464.539 734.008C462.84 736.352 461.492 739.604 460.496 743.764C459.559 747.924 459.09 753.197 459.09 759.584V770.307C459.09 775.404 459.559 779.799 460.496 783.49C461.492 787.123 462.928 790.141 464.803 792.543C466.736 794.887 469.08 796.645 471.834 797.816C474.646 798.93 477.84 799.486 481.414 799.486C486.629 799.486 490.936 798.49 494.334 796.498C497.732 794.447 500.691 791.84 503.211 788.676L511.385 798.432C509.686 800.834 507.459 803.148 504.705 805.375C502.01 807.543 498.67 809.33 494.686 810.736C490.76 812.084 486.043 812.758 480.535 812.758ZM577.039 786.654C577.039 784.252 576.453 782.143 575.281 780.326C574.109 778.51 572.176 776.752 569.48 775.053C566.844 773.354 563.27 771.537 558.758 769.604C554.363 767.787 550.408 766 546.893 764.242C543.436 762.426 540.506 760.463 538.104 758.354C535.701 756.244 533.855 753.812 532.566 751.059C531.336 748.246 530.721 744.936 530.721 741.127C530.721 737.318 531.424 733.803 532.83 730.58C534.295 727.299 536.346 724.428 538.982 721.967C541.619 719.506 544.783 717.602 548.475 716.254C552.166 714.848 556.297 714.145 560.867 714.145C567.371 714.145 572.908 715.404 577.479 717.924C582.049 720.443 585.535 723.9 587.938 728.295C590.398 732.631 591.629 737.523 591.629 742.973H576.16C576.16 740.336 575.574 737.846 574.402 735.502C573.23 733.158 571.502 731.254 569.217 729.789C566.932 728.266 564.148 727.504 560.867 727.504C557.41 727.504 554.598 728.119 552.43 729.35C550.262 730.58 548.68 732.191 547.684 734.184C546.746 736.117 546.277 738.256 546.277 740.6C546.277 742.357 546.512 743.881 546.98 745.17C547.508 746.4 548.387 747.572 549.617 748.686C550.848 749.74 552.518 750.854 554.627 752.025C556.795 753.139 559.549 754.428 562.889 755.893C569.334 758.412 574.754 760.961 579.148 763.539C583.543 766.117 586.883 769.135 589.168 772.592C591.453 776.049 592.596 780.326 592.596 785.424C592.596 789.584 591.834 793.363 590.311 796.762C588.846 800.102 586.736 802.973 583.982 805.375C581.229 807.777 577.918 809.623 574.051 810.912C570.242 812.143 565.965 812.758 561.219 812.758C554.07 812.758 548.006 811.352 543.025 808.539C538.104 805.668 534.354 801.947 531.775 797.377C529.256 792.748 527.996 787.797 527.996 782.523H543.553C543.729 786.977 544.725 790.434 546.541 792.895C548.416 795.355 550.672 797.055 553.309 797.992C555.945 798.93 558.582 799.398 561.219 799.398C564.676 799.398 567.576 798.9 569.92 797.904C572.264 796.85 574.021 795.355 575.193 793.422C576.424 791.488 577.039 789.232 577.039 786.654ZM659.568 794.74V743.148C659.568 739.398 658.982 736.381 657.811 734.096C656.697 731.811 654.998 730.141 652.713 729.086C650.486 728.031 647.674 727.504 644.275 727.504C640.994 727.504 638.152 728.178 635.75 729.525C633.406 730.873 631.59 732.66 630.301 734.887C629.07 737.113 628.455 739.574 628.455 742.27H612.898C612.898 738.871 613.631 735.502 615.096 732.162C616.619 728.822 618.787 725.805 621.6 723.109C624.412 720.355 627.781 718.188 631.707 716.605C635.691 714.965 640.145 714.145 645.066 714.145C650.926 714.145 656.111 715.111 660.623 717.045C665.135 718.92 668.68 721.996 671.258 726.273C673.836 730.551 675.125 736.234 675.125 743.324V790.258C675.125 793.422 675.359 796.791 675.828 800.365C676.355 803.939 677.088 807.016 678.025 809.594V811H661.941C661.18 809.125 660.594 806.635 660.184 803.529C659.773 800.365 659.568 797.436 659.568 794.74ZM662.029 753.344L662.205 764.77H651.395C647.703 764.77 644.334 765.18 641.287 766C638.299 766.82 635.721 768.021 633.553 769.604C631.385 771.127 629.715 773.031 628.543 775.316C627.43 777.602 626.873 780.209 626.873 783.139C626.873 786.947 627.4 789.994 628.455 792.279C629.51 794.506 631.092 796.117 633.201 797.113C635.311 798.109 637.977 798.607 641.199 798.607C645.125 798.607 648.582 797.699 651.57 795.883C654.559 794.066 656.873 791.869 658.514 789.291C660.213 786.713 661.004 784.311 660.887 782.084L664.314 789.379C664.08 791.664 663.318 794.154 662.029 796.85C660.799 799.486 659.07 802.035 656.844 804.496C654.617 806.898 651.98 808.891 648.934 810.473C645.945 811.996 642.576 812.758 638.826 812.758C633.318 812.758 628.484 811.703 624.324 809.594C620.223 807.484 617.029 804.379 614.744 800.277C612.459 796.176 611.316 791.107 611.316 785.072C611.316 780.502 612.107 776.283 613.689 772.416C615.271 768.549 617.615 765.209 620.721 762.396C623.826 759.525 627.723 757.299 632.41 755.717C637.156 754.135 642.635 753.344 648.846 753.344H662.029ZM719.158 811H703.602V707.641C703.602 700.434 704.803 694.34 707.205 689.359C709.666 684.379 713.152 680.6 717.664 678.021C722.234 675.443 727.625 674.154 733.836 674.154C737.527 674.154 741.072 674.682 744.471 675.736C747.869 676.732 751.385 677.992 755.018 679.516L752.381 693.227C750.271 692.172 747.693 691.176 744.646 690.238C741.6 689.242 738.406 688.744 735.066 688.744C729.207 688.744 725.076 690.326 722.674 693.49C720.33 696.596 719.158 701.312 719.158 707.641V811ZM734.539 715.902V728.383H691.209V715.902H734.539ZM762.488 715.902V811H746.932V715.902H762.488ZM784.285 768.021V758.969C784.285 751.586 785.223 745.111 787.098 739.545C788.973 733.92 791.58 729.232 794.92 725.482C798.26 721.732 802.156 718.92 806.609 717.045C811.062 715.111 815.838 714.145 820.936 714.145C826.15 714.145 830.984 715.111 835.438 717.045C839.891 718.92 843.787 721.732 847.127 725.482C850.525 729.232 853.162 733.92 855.037 739.545C856.912 745.111 857.85 751.586 857.85 758.969V768.021C857.85 775.404 856.912 781.908 855.037 787.533C853.162 793.1 850.555 797.758 847.215 801.508C843.875 805.258 839.979 808.07 835.525 809.945C831.072 811.82 826.268 812.758 821.111 812.758C815.955 812.758 811.15 811.82 806.697 809.945C802.244 808.07 798.318 805.258 794.92 801.508C791.58 797.758 788.973 793.1 787.098 787.533C785.223 781.908 784.285 775.404 784.285 768.021ZM799.842 758.969V768.021C799.842 773.236 800.369 777.807 801.424 781.732C802.479 785.658 803.973 788.939 805.906 791.576C807.84 794.213 810.096 796.205 812.674 797.553C815.252 798.842 818.064 799.486 821.111 799.486C824.627 799.486 827.703 798.842 830.34 797.553C833.035 796.205 835.262 794.213 837.02 791.576C838.777 788.939 840.096 785.658 840.975 781.732C841.854 777.807 842.293 773.236 842.293 768.021V758.969C842.293 753.754 841.766 749.213 840.711 745.346C839.656 741.42 838.162 738.139 836.229 735.502C834.295 732.807 832.01 730.814 829.373 729.525C826.795 728.178 823.982 727.504 820.936 727.504C817.947 727.504 815.164 728.178 812.586 729.525C810.008 730.814 807.752 732.807 805.818 735.502C803.943 738.139 802.479 741.42 801.424 745.346C800.369 749.213 799.842 753.754 799.842 758.969ZM924.031 786.654C924.031 784.252 923.445 782.143 922.273 780.326C921.102 778.51 919.168 776.752 916.473 775.053C913.836 773.354 910.262 771.537 905.75 769.604C901.355 767.787 897.4 766 893.885 764.242C890.428 762.426 887.498 760.463 885.096 758.354C882.693 756.244 880.848 753.812 879.559 751.059C878.328 748.246 877.713 744.936 877.713 741.127C877.713 737.318 878.416 733.803 879.822 730.58C881.287 727.299 883.338 724.428 885.975 721.967C888.611 719.506 891.775 717.602 895.467 716.254C899.158 714.848 903.289 714.145 907.859 714.145C914.363 714.145 919.9 715.404 924.471 717.924C929.041 720.443 932.527 723.9 934.93 728.295C937.391 732.631 938.621 737.523 938.621 742.973H923.152C923.152 740.336 922.566 737.846 921.395 735.502C920.223 733.158 918.494 731.254 916.209 729.789C913.924 728.266 911.141 727.504 907.859 727.504C904.402 727.504 901.59 728.119 899.422 729.35C897.254 730.58 895.672 732.191 894.676 734.184C893.738 736.117 893.27 738.256 893.27 740.6C893.27 742.357 893.504 743.881 893.973 745.17C894.5 746.4 895.379 747.572 896.609 748.686C897.84 749.74 899.51 750.854 901.619 752.025C903.787 753.139 906.541 754.428 909.881 755.893C916.326 758.412 921.746 760.961 926.141 763.539C930.535 766.117 933.875 769.135 936.16 772.592C938.445 776.049 939.588 780.326 939.588 785.424C939.588 789.584 938.826 793.363 937.303 796.762C935.838 800.102 933.729 802.973 930.975 805.375C928.221 807.777 924.91 809.623 921.043 810.912C917.234 812.143 912.957 812.758 908.211 812.758C901.062 812.758 894.998 811.352 890.018 808.539C885.096 805.668 881.346 801.947 878.768 797.377C876.248 792.748 874.988 787.797 874.988 782.523H890.545C890.721 786.977 891.717 790.434 893.533 792.895C895.408 795.355 897.664 797.055 900.301 797.992C902.938 798.93 905.574 799.398 908.211 799.398C911.668 799.398 914.568 798.9 916.912 797.904C919.256 796.85 921.014 795.355 922.186 793.422C923.416 791.488 924.031 789.232 924.031 786.654Z" fill="white"/>
</g>
<defs>
<filter id="filter0_d_808_2" x="440.333" y="147.667" width="421" height="421" filterUnits="userSpaceOnUse" color-interpolation-filters="sRGB">
<feFlood flood-opacity="0" result="BackgroundImageFix"/>
<feColorMatrix in="SourceAlpha" type="matrix" values="0 0 0 0 0 0 0 0 0 0 0 0 0 0 0 0 0 0 127 0" result="hardAlpha"/>
<feOffset dy="4"/>
<feGaussianBlur stdDeviation="2"/>
<feComposite in2="hardAlpha" operator="out"/>
<feColorMatrix type="matrix" values="0 0 0 0 0 0 0 0 0 0 0 0 0 0 0 0 0 0 0.25 0"/>
<feBlend mode="normal" in2="BackgroundImageFix" result="effect1_dropShadow_808_2"/>
<feBlend mode="normal" in="SourceGraphic" in2="effect1_dropShadow_808_2" result="shape"/>
</filter>
<filter id="filter1_d_808_2" x="341.799" y="674.154" width="601.789" height="146.604" filterUnits="userSpaceOnUse" color-interpolation-filters="sRGB">
<feFlood flood-opacity="0" result="BackgroundImageFix"/>
<feColorMatrix in="SourceAlpha" type="matrix" values="0 0 0 0 0 0 0 0 0 0 0 0 0 0 0 0 0 0 127 0" result="hardAlpha"/>
<feOffset dy="4"/>
<feGaussianBlur stdDeviation="2"/>
<feComposite in2="hardAlpha" operator="out"/>
<feColorMatrix type="matrix" values="0 0 0 0 0 0 0 0 0 0 0 0 0 0 0 0 0 0 0.25 0"/>
<feBlend mode="normal" in2="BackgroundImageFix" result="effect1_dropShadow_808_2"/>
<feBlend mode="normal" in="SourceGraphic" in2="effect1_dropShadow_808_2" result="shape"/>
</filter>
</defs>
</svg>
