<svg width="1280" height="982" viewBox="0 0 1280 982" fill="none" xmlns="http://www.w3.org/2000/svg">
<rect width="1280" height="982" fill="#2196F3"/>
<g clip-path="url(#clip0_808_5)">
<path d="M562.333 316.8C553.988 316.8 545.984 320.115 540.083 326.016C534.182 331.918 530.867 339.921 530.867 348.267V379.733H593.8V348.267C593.8 339.921 590.485 331.918 584.584 326.016C578.683 320.115 570.679 316.8 562.333 316.8ZM751.133 379.733H703.933C699.761 379.733 695.759 381.391 692.808 384.341C689.858 387.292 688.2 391.294 688.2 395.467C688.2 399.639 689.858 403.641 692.808 406.592C695.759 409.542 699.761 411.2 703.933 411.2H751.133V379.733Z" fill="white"/>
<g filter="url(#filter0_d_808_5)">
<path fill-rule="evenodd" clip-rule="evenodd" d="M405 269.6C405 248.736 413.288 228.727 428.041 213.974C442.794 199.221 462.803 190.933 483.667 190.933H798.333C819.197 190.933 839.206 199.221 853.959 213.974C868.712 228.727 877 248.736 877 269.6V458.4C877 479.264 868.712 499.273 853.959 514.026C839.206 528.779 819.197 537.067 798.333 537.067H483.667C462.803 537.067 442.794 528.779 428.041 514.026C413.288 499.273 405 479.264 405 458.4V269.6ZM530.867 442.667V411.2H593.8V442.667H625.267V348.267C625.267 331.576 618.636 315.568 606.834 303.766C595.032 291.964 579.024 285.333 562.333 285.333C545.642 285.333 529.635 291.964 517.833 303.766C506.03 315.568 499.4 331.576 499.4 348.267V442.667H530.867ZM751.133 348.267H703.933C691.415 348.267 679.41 353.24 670.558 362.091C661.706 370.943 656.733 382.948 656.733 395.467C656.733 407.985 661.706 419.99 670.558 428.842C679.41 437.694 691.415 442.667 703.933 442.667H782.6V285.333H751.133V348.267Z" fill="white"/>
</g>
</g>
<g filter="url(#filter1_d_808_5)">
<path d="M364.283 694.369L329.303 811H312.779L354 683.031H364.371L364.283 694.369ZM392.584 811L357.604 694.369L357.428 683.031H367.887L409.107 811H392.584ZM392.584 763.627V777.514H330.885V763.627H392.584ZM440.133 736.205V811H424.576V715.902H439.254L440.133 736.205ZM436.354 759.848L430.025 759.584C429.967 753.08 430.699 747.074 432.223 741.566C433.805 736 436.031 731.166 438.902 727.064C441.832 722.963 445.318 719.799 449.361 717.572C453.404 715.287 457.887 714.145 462.809 714.145C466.676 714.145 470.191 714.789 473.355 716.078C476.52 717.309 479.215 719.301 481.441 722.055C483.668 724.809 485.367 728.383 486.539 732.777C487.77 737.113 488.385 742.416 488.385 748.686V811H472.828V748.51C472.828 743.529 472.271 739.545 471.158 736.557C470.104 733.51 468.463 731.312 466.236 729.965C464.068 728.559 461.314 727.855 457.975 727.855C454.928 727.855 452.086 728.705 449.449 730.404C446.812 732.104 444.498 734.447 442.506 737.436C440.572 740.424 439.049 743.852 437.936 747.719C436.881 751.527 436.354 755.57 436.354 759.848ZM559.84 789.027V715.902H575.396V811H560.631L559.84 789.027ZM562.74 768.988L568.893 768.812C568.893 775.141 568.336 781 567.223 786.391C566.168 791.723 564.41 796.352 561.949 800.277C559.547 804.203 556.354 807.279 552.369 809.506C548.385 811.674 543.492 812.758 537.691 812.758C533.766 812.758 530.191 812.084 526.969 810.736C523.805 809.389 521.051 807.309 518.707 804.496C516.422 801.684 514.635 798.021 513.346 793.51C512.115 788.998 511.5 783.578 511.5 777.25V715.902H526.969V777.426C526.969 781.703 527.35 785.248 528.111 788.061C528.873 790.814 529.898 793.012 531.188 794.652C532.477 796.234 533.912 797.348 535.494 797.992C537.076 798.637 538.688 798.959 540.328 798.959C545.836 798.959 550.23 797.641 553.512 795.004C556.793 792.309 559.137 788.705 560.543 784.193C562.008 779.623 562.74 774.555 562.74 768.988ZM534.615 701.84L551.666 676H571.266L547.711 701.84H534.615ZM614.332 736.205V811H598.775V715.902H613.453L614.332 736.205ZM610.553 759.848L604.225 759.584C604.166 753.08 604.898 747.074 606.422 741.566C608.004 736 610.23 731.166 613.102 727.064C616.031 722.963 619.518 719.799 623.561 717.572C627.604 715.287 632.086 714.145 637.008 714.145C640.875 714.145 644.391 714.789 647.555 716.078C650.719 717.309 653.414 719.301 655.641 722.055C657.867 724.809 659.566 728.383 660.738 732.777C661.969 737.113 662.584 742.416 662.584 748.686V811H647.027V748.51C647.027 743.529 646.471 739.545 645.357 736.557C644.303 733.51 642.662 731.312 640.436 729.965C638.268 728.559 635.514 727.855 632.174 727.855C629.127 727.855 626.285 728.705 623.648 730.404C621.012 732.104 618.697 734.447 616.705 737.436C614.771 740.424 613.248 743.852 612.135 747.719C611.08 751.527 610.553 755.57 610.553 759.848ZM718.922 799.486C722.027 799.486 724.84 798.871 727.359 797.641C729.938 796.352 732.047 794.359 733.688 791.664C735.328 788.91 736.266 785.336 736.5 780.941H751.09C750.855 787.27 749.244 792.836 746.256 797.641C743.326 802.387 739.459 806.107 734.654 808.803C729.908 811.439 724.664 812.758 718.922 812.758C712.77 812.758 707.408 811.762 702.838 809.77C698.326 807.777 694.576 804.906 691.588 801.156C688.658 797.348 686.461 792.748 684.996 787.357C683.531 781.908 682.799 775.727 682.799 768.812V758.09C682.799 751.176 683.531 745.023 684.996 739.633C686.461 734.184 688.658 729.584 691.588 725.834C694.576 722.025 698.326 719.125 702.838 717.133C707.408 715.141 712.77 714.145 718.922 714.145C725.367 714.145 730.934 715.521 735.621 718.275C740.367 720.971 744.059 724.896 746.695 730.053C749.391 735.15 750.855 741.332 751.09 748.598H736.5C736.266 743.91 735.416 740.014 733.951 736.908C732.486 733.744 730.494 731.4 727.975 729.877C725.455 728.295 722.438 727.504 718.922 727.504C714.82 727.504 711.422 728.236 708.727 729.701C706.09 731.107 704.01 733.158 702.486 735.854C700.963 738.549 699.879 741.771 699.234 745.521C698.648 749.271 698.355 753.461 698.355 758.09V768.812C698.355 773.441 698.648 777.66 699.234 781.469C699.879 785.219 700.934 788.441 702.398 791.137C703.922 793.832 706.031 795.912 708.727 797.377C711.422 798.783 714.82 799.486 718.922 799.486ZM785.807 715.902V811H770.338V715.902H785.807ZM769.459 690.678C769.459 688.041 770.191 685.814 771.656 683.998C773.121 682.182 775.318 681.273 778.248 681.273C781.178 681.273 783.375 682.182 784.84 683.998C786.363 685.814 787.125 688.041 787.125 690.678C787.125 693.197 786.363 695.365 784.84 697.182C783.375 698.939 781.178 699.818 778.248 699.818C775.318 699.818 773.121 698.939 771.656 697.182C770.191 695.365 769.459 693.197 769.459 690.678ZM807.164 768.021V758.969C807.164 751.586 808.102 745.111 809.977 739.545C811.852 733.92 814.459 729.232 817.799 725.482C821.139 721.732 825.035 718.92 829.488 717.045C833.941 715.111 838.717 714.145 843.814 714.145C849.029 714.145 853.863 715.111 858.316 717.045C862.77 718.92 866.666 721.732 870.006 725.482C873.404 729.232 876.041 733.92 877.916 739.545C879.791 745.111 880.729 751.586 880.729 758.969V768.021C880.729 775.404 879.791 781.908 877.916 787.533C876.041 793.1 873.434 797.758 870.094 801.508C866.754 805.258 862.857 808.07 858.404 809.945C853.951 811.82 849.146 812.758 843.99 812.758C838.834 812.758 834.029 811.82 829.576 809.945C825.123 808.07 821.197 805.258 817.799 801.508C814.459 797.758 811.852 793.1 809.977 787.533C808.102 781.908 807.164 775.404 807.164 768.021ZM822.721 758.969V768.021C822.721 773.236 823.248 777.807 824.303 781.732C825.357 785.658 826.852 788.939 828.785 791.576C830.719 794.213 832.975 796.205 835.553 797.553C838.131 798.842 840.943 799.486 843.99 799.486C847.506 799.486 850.582 798.842 853.219 797.553C855.914 796.205 858.141 794.213 859.898 791.576C861.656 788.939 862.975 785.658 863.854 781.732C864.732 777.807 865.172 773.236 865.172 768.021V758.969C865.172 753.754 864.645 749.213 863.59 745.346C862.535 741.42 861.041 738.139 859.107 735.502C857.174 732.807 854.889 730.814 852.252 729.525C849.674 728.178 846.861 727.504 843.814 727.504C840.826 727.504 838.043 728.178 835.465 729.525C832.887 730.814 830.631 732.807 828.697 735.502C826.822 738.139 825.357 741.42 824.303 745.346C823.248 749.213 822.721 753.754 822.721 758.969ZM946.91 786.654C946.91 784.252 946.324 782.143 945.152 780.326C943.98 778.51 942.047 776.752 939.352 775.053C936.715 773.354 933.141 771.537 928.629 769.604C924.234 767.787 920.279 766 916.764 764.242C913.307 762.426 910.377 760.463 907.975 758.354C905.572 756.244 903.727 753.812 902.438 751.059C901.207 748.246 900.592 744.936 900.592 741.127C900.592 737.318 901.295 733.803 902.701 730.58C904.166 727.299 906.217 724.428 908.854 721.967C911.49 719.506 914.654 717.602 918.346 716.254C922.037 714.848 926.168 714.145 930.738 714.145C937.242 714.145 942.779 715.404 947.35 717.924C951.92 720.443 955.406 723.9 957.809 728.295C960.27 732.631 961.5 737.523 961.5 742.973H946.031C946.031 740.336 945.445 737.846 944.273 735.502C943.102 733.158 941.373 731.254 939.088 729.789C936.803 728.266 934.02 727.504 930.738 727.504C927.281 727.504 924.469 728.119 922.301 729.35C920.133 730.58 918.551 732.191 917.555 734.184C916.617 736.117 916.148 738.256 916.148 740.6C916.148 742.357 916.383 743.881 916.852 745.17C917.379 746.4 918.258 747.572 919.488 748.686C920.719 749.74 922.389 750.854 924.498 752.025C926.666 753.139 929.42 754.428 932.76 755.893C939.205 758.412 944.625 760.961 949.02 763.539C953.414 766.117 956.754 769.135 959.039 772.592C961.324 776.049 962.467 780.326 962.467 785.424C962.467 789.584 961.705 793.363 960.182 796.762C958.717 800.102 956.607 802.973 953.854 805.375C951.1 807.777 947.789 809.623 943.922 810.912C940.113 812.143 935.836 812.758 931.09 812.758C923.941 812.758 917.877 811.352 912.896 808.539C907.975 805.668 904.225 801.947 901.646 797.377C899.127 792.748 897.867 787.797 897.867 782.523H913.424C913.6 786.977 914.596 790.434 916.412 792.895C918.287 795.355 920.543 797.055 923.18 797.992C925.816 798.93 928.453 799.398 931.09 799.398C934.547 799.398 937.447 798.9 939.791 797.904C942.135 796.85 943.893 795.355 945.064 793.422C946.295 791.488 946.91 789.232 946.91 786.654Z" fill="white"/>
</g>
<defs>
<filter id="filter0_d_808_5" x="401" y="190.933" width="480" height="354.133" filterUnits="userSpaceOnUse" color-interpolation-filters="sRGB">
<feFlood flood-opacity="0" result="BackgroundImageFix"/>
<feColorMatrix in="SourceAlpha" type="matrix" values="0 0 0 0 0 0 0 0 0 0 0 0 0 0 0 0 0 0 127 0" result="hardAlpha"/>
<feOffset dy="4"/>
<feGaussianBlur stdDeviation="2"/>
<feComposite in2="hardAlpha" operator="out"/>
<feColorMatrix type="matrix" values="0 0 0 0 0 0 0 0 0 0 0 0 0 0 0 0 0 0 0.25 0"/>
<feBlend mode="normal" in2="BackgroundImageFix" result="effect1_dropShadow_808_5"/>
<feBlend mode="normal" in="SourceGraphic" in2="effect1_dropShadow_808_5" result="shape"/>
</filter>
<filter id="filter1_d_808_5" x="308.779" y="676" width="657.688" height="144.758" filterUnits="userSpaceOnUse" color-interpolation-filters="sRGB">
<feFlood flood-opacity="0" result="BackgroundImageFix"/>
<feColorMatrix in="SourceAlpha" type="matrix" values="0 0 0 0 0 0 0 0 0 0 0 0 0 0 0 0 0 0 127 0" result="hardAlpha"/>
<feOffset dy="4"/>
<feGaussianBlur stdDeviation="2"/>
<feComposite in2="hardAlpha" operator="out"/>
<feColorMatrix type="matrix" values="0 0 0 0 0 0 0 0 0 0 0 0 0 0 0 0 0 0 0.25 0"/>
<feBlend mode="normal" in2="BackgroundImageFix" result="effect1_dropShadow_808_5"/>
<feBlend mode="normal" in="SourceGraphic" in2="effect1_dropShadow_808_5" result="shape"/>
</filter>
<clipPath id="clip0_808_5">
<rect width="472" height="472" fill="white" transform="translate(405 128)"/>
</clipPath>
</defs>
</svg>
