<svg width="1280" height="720" viewBox="0 0 1280 720" fill="none" xmlns="http://www.w3.org/2000/svg">
<rect width="1280" height="720" fill="#CFCFCF" fill-opacity="0.2"/>
<g clip-path="url(#clip0_807_2)">
<path d="M561.333 312.8C552.988 312.8 544.984 316.115 539.083 322.016C533.182 327.918 529.867 335.921 529.867 344.267V375.733H592.8V344.267C592.8 335.921 589.485 327.918 583.584 322.016C577.683 316.115 569.679 312.8 561.333 312.8ZM750.133 375.733H702.933C698.761 375.733 694.759 377.391 691.808 380.342C688.858 383.292 687.2 387.294 687.2 391.467C687.2 395.639 688.858 399.641 691.808 402.592C694.759 405.542 698.761 407.2 702.933 407.2H750.133V375.733Z" fill="#B1B1B1" fill-opacity="0.6"/>
<path fill-rule="evenodd" clip-rule="evenodd" d="M404 265.6C404 244.736 412.288 224.727 427.041 209.974C441.794 195.221 461.803 186.933 482.667 186.933H797.333C818.197 186.933 838.206 195.221 852.959 209.974C867.712 224.727 876 244.736 876 265.6V454.4C876 475.264 867.712 495.273 852.959 510.026C838.206 524.779 818.197 533.067 797.333 533.067H482.667C461.803 533.067 441.794 524.779 427.041 510.026C412.288 495.273 404 475.264 404 454.4V265.6ZM529.867 438.667V407.2H592.8V438.667H624.267V344.267C624.267 327.576 617.636 311.568 605.834 299.766C594.032 287.964 578.024 281.333 561.333 281.333C544.642 281.333 528.635 287.964 516.833 299.766C505.03 311.568 498.4 327.576 498.4 344.267V438.667H529.867ZM750.133 344.267H702.933C690.415 344.267 678.41 349.24 669.558 358.091C660.706 366.943 655.733 378.948 655.733 391.467C655.733 403.985 660.706 415.99 669.558 424.842C678.41 433.694 690.415 438.667 702.933 438.667H781.6V281.333H750.133V344.267Z" fill="#B1B1B1" fill-opacity="0.6"/>
</g>
<defs>
<clipPath id="clip0_807_2">
<rect width="472" height="472" fill="white" transform="translate(404 124)"/>
</clipPath>
</defs>
</svg>
