<svg width="97" height="97" viewBox="0 0 97 97" fill="none" xmlns="http://www.w3.org/2000/svg">
<path d="M78.4351 37.5525C77.3026 35.8725 76.1251 34.14 75.6976 32.1225C75.5176 31.29 74.5426 28.0275 75.7201 27.5625C76.3726 27.3075 76.4851 28.2375 76.6351 28.65C77.5051 30.945 77.8201 33.1575 79.4326 35.1C80.5951 36.51 81.9601 37.77 83.0251 39.2475C82.9876 18.78 74.5951 1.7775 48.3751 1.7775C22.2601 1.7775 13.8301 18.645 13.7251 39C14.7601 37.62 16.0576 36.4275 17.1526 35.1C18.7576 33.1575 19.0801 30.945 19.9501 28.65C20.1076 28.2375 20.2276 27.3075 20.8651 27.5625C22.0501 28.0275 21.0676 31.29 20.8951 32.1225C20.4601 34.14 19.2901 35.8725 18.1576 37.5525C16.9426 39.3525 15.3151 40.9725 14.6926 43.1025C14.3776 44.1675 14.0851 45.225 14.1076 46.335C14.2576 47.655 14.4376 48.9675 14.6926 50.2725C15.5101 54.465 17.5426 61.125 21.4201 63.4875C24.4201 65.31 28.1026 64.2075 30.7951 66.75C33.0976 68.9325 33.3526 72.1725 36.5476 73.5075C39.3601 74.685 43.1476 74.715 46.3726 74.715C49.8376 74.715 53.0026 74.76 56.1751 73.9725C59.1751 73.2225 62.4526 71.8125 64.5676 69.4425C64.9276 69.045 65.2051 68.6025 65.4601 68.1525C66.0751 67.0725 66.5701 65.9325 67.6726 65.16C69.2401 64.065 71.3101 64.11 73.0801 63.5325C77.1526 62.19 78.1126 58.77 79.9426 55.32C81.1801 53.0025 81.9076 50.67 82.3576 48.2775C82.4251 47.6325 82.4551 46.9875 82.4776 46.3425C82.4926 45.2325 82.2001 44.1675 81.8926 43.1025C81.2776 40.98 79.6426 39.3525 78.4351 37.5525ZM34.2001 53.7975C24.0526 56.73 20.2951 47.85 23.7826 41.9025C25.6501 38.715 29.6026 36.3675 35.7601 37.1325C45.7426 38.37 41.9701 51.54 34.2001 53.7975ZM51.2401 63.36C49.9501 63.51 48.7951 63.66 47.5276 63.495C45.9301 63.2925 43.4401 63.6675 42.3901 62.1225C42.0001 61.5525 42.0076 60.9075 42.0601 60.255C42.0901 59.9025 42.1426 59.5425 42.1501 59.19C42.1876 57.675 42.6976 56.22 43.3576 54.87C43.6801 54.2025 44.0551 53.5275 44.4076 52.8525C45.2176 51.3 47.1901 49.395 49.1251 50.2125C49.9201 50.55 50.9476 51.195 51.3901 51.9525C51.8851 52.8075 51.9676 53.8275 52.4026 54.705C52.8001 55.5075 52.9651 56.2725 53.1001 57.18C53.2201 57.9975 53.3176 58.83 53.4001 59.6475C53.5726 61.4475 53.3251 63.1125 51.2401 63.36ZM62.3701 53.7975C54.6001 51.54 50.8276 38.37 60.8026 37.125C66.9676 36.36 70.9126 38.7075 72.7876 41.895C76.2751 47.85 72.5176 56.73 62.3701 53.7975Z" fill="white"/>
<path d="M71.5052 66.8775C67.2077 65.6775 67.8227 72.99 66.3077 75.165C64.1102 78.3075 59.3927 77.895 56.0402 78.27C52.1252 78.7125 48.6002 79.02 44.5352 79.02C39.7202 79.02 32.7902 79.6425 29.2277 75.63C27.3002 73.455 28.1777 70.7175 26.7452 68.52C25.4627 66.555 22.5527 65.9325 22.5377 68.9925C22.5302 71.3475 23.1377 73.8375 23.5427 76.14C24.0902 79.2525 24.8102 82.14 26.2277 84.9825C27.2552 87.03 29.0027 88.44 30.7277 89.8875C32.7977 91.62 34.9802 92.205 37.5377 93.0075C38.7677 93.39 40.0127 93.75 41.2802 93.93C42.8252 94.155 44.4602 94.1325 46.0277 94.335C48.3827 94.635 51.2852 95.3025 53.7002 94.7625C57.5627 93.9075 61.3427 91.8675 64.9577 90.4125C72.3227 87.4575 74.3252 78.8775 74.3252 71.61C74.3177 69.3525 73.9577 67.56 71.5052 66.8775Z" fill="white"/>
</svg>
