<svg width="1280" height="720" viewBox="0 0 1280 720" fill="none" xmlns="http://www.w3.org/2000/svg">
<rect width="1280" height="720" fill="#CFCFCF" fill-opacity="0.2"/>
<path d="M807.167 340.333H777.667V261.667C777.667 251.235 773.523 241.23 766.146 233.854C758.77 226.477 748.765 222.333 738.333 222.333H659.667V192.833C659.667 179.794 654.487 167.288 645.266 158.067C636.045 148.847 623.54 143.667 610.5 143.667C597.46 143.667 584.954 148.847 575.734 158.067C566.513 167.288 561.333 179.794 561.333 192.833V222.333H482.667C472.235 222.333 462.23 226.477 454.854 233.854C447.477 241.23 443.333 251.235 443.333 261.667V336.4H472.833C502.333 336.4 525.933 360 525.933 389.5C525.933 419 502.333 442.6 472.833 442.6H443.333V517.333C443.333 527.765 447.477 537.77 454.854 545.146C462.23 552.523 472.235 556.667 482.667 556.667H557.4V527.167C557.4 497.667 581 474.067 610.5 474.067C640 474.067 663.6 497.667 663.6 527.167V556.667H738.333C748.765 556.667 758.77 552.523 766.146 545.146C773.523 537.77 777.667 527.765 777.667 517.333V438.667H807.167C820.206 438.667 832.712 433.487 841.933 424.266C851.153 415.046 856.333 402.54 856.333 389.5C856.333 376.46 851.153 363.954 841.933 354.734C832.712 345.513 820.206 340.333 807.167 340.333V340.333Z" fill="#B1B1B1" fill-opacity="0.6"/>
</svg>
